<?xml version="1.0" encoding="UTF-8"?>
<svg id="Layer_1" data-name="Layer 1" xmlns="http://www.w3.org/2000/svg" viewBox="0 0 24 24">
  <defs>
    <style>
      .cls-1 {
        font-family: Arial-BoldMT, Arial;
        font-size: 3px;
        font-weight: 700;
      }

      .cls-1, .cls-2, .cls-3 {
        fill: #efefef;
      }

      .cls-2 {
        fill-rule: evenodd;
      }

      .cls-2, .cls-3 {
        stroke-width: 0px;
      }
    </style>
  </defs>
  <text class="cls-1" transform="translate(2.5 22.08)"><tspan x="0" y="0">Communities</tspan></text>
  <g>
    <path class="cls-2" d="m12,1.5c-2.23,0-4.04,1.76-4.04,3.94s1.81,3.94,4.04,3.94,4.04-1.76,4.04-3.94-1.81-3.94-4.04-3.94Zm-2.77,3.94c0-1.49,1.24-2.7,2.77-2.7s2.77,1.21,2.77,2.7-1.24,2.7-2.77,2.7-2.77-1.21-2.77-2.7Z"/>
    <path class="cls-3" d="m17.11,3.16c-.35,0-.64.28-.64.62s.29.62.64.62c1.17,0,1.91.75,1.91,1.45s-.74,1.45-1.91,1.45c-.35,0-.64.28-.64.62s.29.62.64.62c1.65,0,3.19-1.11,3.19-2.7s-1.54-2.7-3.19-2.7Z"/>
    <path class="cls-3" d="m7.53,3.78c0-.34-.29-.62-.64-.62-1.65,0-3.19,1.11-3.19,2.7s1.54,2.7,3.19,2.7c.35,0,.64-.28.64-.62s-.29-.62-.64-.62c-1.17,0-1.91-.75-1.91-1.45s.74-1.45,1.91-1.45c.35,0,.64-.28.64-.62Z"/>
    <path class="cls-2" d="m12,10.62c-1.52,0-2.92.4-3.96,1.08-1.04.67-1.78,1.67-1.78,2.86s.74,2.19,1.78,2.86c1.04.68,2.45,1.08,3.96,1.08s2.92-.4,3.96-1.08c1.04-.67,1.78-1.67,1.78-2.86s-.74-2.19-1.78-2.86c-1.04-.68-2.45-1.08-3.96-1.08Zm-4.47,3.94c0-.64.4-1.3,1.21-1.83.81-.52,1.96-.87,3.26-.87s2.45.34,3.26.87c.81.53,1.21,1.18,1.21,1.83s-.4,1.3-1.21,1.83c-.81.52-1.96.87-3.26.87s-2.45-.34-3.26-.87c-.81-.53-1.21-1.18-1.21-1.83Z"/>
    <path class="cls-3" d="m18.19,11.94c.08-.34.42-.55.76-.47.82.17,1.56.49,2.1.93.55.44.95,1.04.95,1.75s-.4,1.32-.95,1.75c-.55.44-1.29.75-2.1.93-.34.07-.68-.14-.76-.47-.08-.34.14-.67.49-.74.67-.14,1.21-.39,1.57-.68.36-.28.48-.56.48-.79s-.13-.51-.48-.79c-.36-.28-.89-.53-1.57-.68-.34-.07-.56-.41-.49-.74Z"/>
    <path class="cls-3" d="m5.05,11.47c.34-.07.68.14.76.47.08.34-.14.67-.49.74-.67.14-1.21.39-1.57.68-.36.28-.48.56-.48.79s.13.51.48.79c.36.28.89.53,1.57.68.34.07.56.41.49.74-.08.34-.42.55-.76.47-.82-.17-1.56-.49-2.1-.93-.55-.44-.95-1.04-.95-1.75s.4-1.32.95-1.75c.55-.44,1.29-.75,2.1-.93Z"/>
  </g>
</svg>