<?xml version="1.0" encoding="UTF-8"?>
<svg xmlns="http://www.w3.org/2000/svg" viewBox="0 0 24 24">
  <defs>
    <style>
      .cls-1 {
        font-family: Arial-BoldMT, Arial;
        font-size: 3px;
        font-weight: 700;
      }

      .cls-1, .cls-2 {
        fill: #efefef;
      }

      .cls-2 {
        fill-rule: evenodd;
        stroke-width: 0px;
      }
    </style>
  </defs>
  <g id="Layer_1" data-name="Layer 1">
    <g>
      <path class="cls-2" d="m17.14,1.81c.32,0,.59.26.59.59v2.15h2.15c.32,0,.59.26.59.59s-.26.59-.59.59h-2.15v2.15c0,.32-.26.59-.59.59s-.59-.26-.59-.59v-2.15h-2.15c-.32,0-.59-.26-.59-.59s.26-.59.59-.59h2.15v-2.15c0-.32.26-.59.59-.59Z"/>
      <path class="cls-2" d="m16.42,18.47c1.13-.15,2.02-.47,2.72-1.17.7-.7,1.02-1.59,1.17-2.72.15-1.1.15-2.52.15-4.32v-.04c0-.32-.26-.59-.59-.59s-.59.26-.59.59c0,1.86,0,3.19-.14,4.21,0,.04-.01.08-.02.12l-2.17-1.95c-1.02-.91-2.53-1.01-3.65-.22l-.23.16c-.39.27-.92.23-1.25-.11l-3.35-3.35c-.89-.89-2.31-.94-3.26-.11l-.4.35c0-1.4.02-2.47.14-3.31.13-1,.39-1.6.84-2.05.45-.45,1.05-.7,2.05-.84,1.02-.14,2.35-.14,4.21-.14.32,0,.59-.26.59-.59s-.26-.59-.59-.59h-.04c-1.8,0-3.22,0-4.32.15-1.13.15-2.02.47-2.72,1.17s-1.02,1.59-1.17,2.72c-.15,1.1-.15,2.52-.15,4.32v.09c0,1.8,0,3.22.15,4.32.15,1.13.47,2.02,1.17,2.72.7.7,1.59,1.02,2.72,1.17"/>
      <path class="cls-2" d="m4.96,14.42c.13,1,.39,1.6.84,2.05.45.45,1.05.7,2.05.84,1.02.14,2.35.14,4.21.14s3.19,0,4.21-.14c1-.13,1.6-.39,2.05-.84.19-.19.35-.41.47-.68-.03-.02-.06-.04-.09-.06l-2.52-2.27c-.61-.55-1.52-.6-2.19-.13l-.23.16c-.85.6-2.02.5-2.76-.24l-3.35-3.35c-.45-.45-1.17-.48-1.65-.06l-1.17,1.02c0,1.52.02,2.66.14,3.55Z"/>
    </g>
  </g>
  <g id="Layer_2" data-name="Layer 2">
    <text class="cls-1" transform="translate(3.66 22.26)"><tspan x="0" y="0">Create Post</tspan></text>
  </g>
</svg>