<?xml version="1.0" encoding="UTF-8"?>
<svg xmlns="http://www.w3.org/2000/svg" viewBox="0 0 24 24">
  <defs>
    <style>
      .cls-1 {
        font-family: Arial-BoldMT, Arial;
        font-size: 3px;
        font-weight: 700;
      }

      .cls-1, .cls-2 {
        fill: #efefef;
      }

      .cls-2 {
        fill-rule: evenodd;
        stroke-width: 0px;
      }
    </style>
  </defs>
  <g id="Layer_1" data-name="Layer 1">
    <path class="cls-2" d="m6.35,3.54c-1.47.67-2.55,2.27-2.55,4.18s.8,3.45,1.94,4.74c.94,1.06,2.08,1.94,3.19,2.8.26.2.53.41.78.61.47.37.88.69,1.28.92.4.23.72.34,1,.34s.6-.11,1-.34c.4-.23.82-.56,1.28-.92.26-.2.52-.41.78-.61,1.11-.86,2.25-1.74,3.19-2.8,1.14-1.29,1.94-2.79,1.94-4.74s-1.08-3.51-2.55-4.18c-1.43-.65-3.35-.48-5.17,1.42-.13.13-.3.2-.48.2s-.35-.07-.48-.2c-1.82-1.9-3.74-2.07-5.17-1.42Zm5.65.03c-2.05-1.83-4.34-2.09-6.2-1.24-1.96.9-3.33,2.98-3.33,5.39s.98,4.17,2.28,5.62c1.03,1.16,2.3,2.14,3.42,3,.25.2.5.38.73.57.45.36.94.74,1.44,1.03.49.29,1.06.52,1.67.52s1.18-.23,1.67-.52c.49-.29.98-.67,1.44-1.03.23-.18.48-.37.73-.57,1.12-.86,2.38-1.83,3.42-3,1.29-1.45,2.28-3.26,2.28-5.62s-1.36-4.49-3.33-5.39c-1.86-.85-4.16-.59-6.2,1.24Z"/>
  </g>
  <g id="Layer_2" data-name="Layer 2">
    <text class="cls-1" transform="translate(6.58 22.04)"><tspan x="0" y="0">Activity</tspan></text>
  </g>
</svg>