<?xml version="1.0" encoding="UTF-8"?>
<svg xmlns="http://www.w3.org/2000/svg" viewBox="0 0 24 24">
  <defs>
    <style>
      .cls-1 {
        font-family: Arial-BoldMT, Arial;
        font-size: 3px;
        font-weight: 700;
      }

      .cls-1, .cls-2 {
        fill: #efefef;
      }

      .cls-2 {
        fill-rule: evenodd;
        stroke-width: 0px;
      }
    </style>
  </defs>
  <g id="Layer_1" data-name="Layer 1">
    <path class="cls-2" d="m12,1.14c-.57,0-1.09.16-1.65.44-.54.26-1.17.66-1.96,1.14l-1.67,1.04c-.74.46-1.34.83-1.8,1.18-.48.36-.84.73-1.1,1.22-.26.48-.38.99-.44,1.6-.06.59-.06,1.3-.06,2.2v1.3c0,1.54,0,2.75.12,3.7.13.97.39,1.76.99,2.38.6.62,1.37.9,2.32,1.03.92.13,2.1.13,3.58.13h3.32c1.48,0,2.66,0,3.58-.13.95-.13,1.72-.41,2.32-1.03.6-.62.87-1.41.99-2.38.12-.95.12-2.16.12-3.7v-1.3c0-.9,0-1.62-.06-2.2-.06-.6-.18-1.12-.44-1.6-.26-.48-.63-.85-1.1-1.22-.46-.35-1.05-.72-1.8-1.18l-1.67-1.04c-.79-.49-1.42-.88-1.96-1.14-.56-.27-1.08-.44-1.65-.44Zm-3,2.63c.82-.51,1.4-.87,1.88-1.1.47-.23.8-.32,1.12-.32s.66.09,1.12.32c.48.23,1.06.59,1.88,1.1l1.61,1c.78.48,1.32.82,1.73,1.13.4.3.62.55.78.84.16.28.25.62.3,1.13.05.52.05,1.18.05,2.12v1.23c0,1.59,0,2.73-.11,3.59-.11.85-.32,1.34-.66,1.69-.34.35-.81.56-1.62.68-.83.12-1.92.12-3.46.12h-3.23c-1.54,0-2.63,0-3.46-.12-.81-.11-1.27-.32-1.62-.68-.35-.36-.55-.85-.66-1.69-.11-.86-.11-2-.11-3.59v-1.23c0-.93,0-1.59.05-2.12.05-.51.14-.84.3-1.13.16-.28.38-.53.78-.84.41-.31.95-.65,1.73-1.13l1.61-1Z"/>
  </g>
  <g id="Layer_2" data-name="Layer 2">
    <text class="cls-1" transform="translate(7.83 22.26)"><tspan x="0" y="0">Home</tspan></text>
  </g>
</svg>