<?xml version="1.0" encoding="utf-8"?>
<!-- Generator: Adobe Illustrator 28.0.0, SVG Export Plug-In . SVG Version: 6.00 Build 0)  -->
<svg version="1.1" xmlns="http://www.w3.org/2000/svg" xmlns:xlink="http://www.w3.org/1999/xlink" x="0px" y="0px"
	 viewBox="0 0 24 24" style="enable-background:new 0 0 24 24;" xml:space="preserve">
<style type="text/css">
	.st0{fill-rule:evenodd;clip-rule:evenodd;fill:#EFEFEF;}
	.st1{fill:#EFEFEF;}
	.st2{font-family:'Arial-BoldMT';}
	.st3{font-size:3px;}
</style>
<g id="Layer_1">
	<text transform="matrix(1 0 0 1 -132.5103 22.2966)" class="st1 st2 st3">Communities</text>
	<g>
		<g>
			<path class="st0" d="M-123,1.7c-2.2,0-4,1.8-4,3.9s1.8,3.9,4,3.9c2.2,0,4-1.8,4-3.9S-120.8,1.7-123,1.7z M-125.8,5.7
				c0-1.5,1.2-2.7,2.8-2.7c1.5,0,2.8,1.2,2.8,2.7s-1.2,2.7-2.8,2.7C-124.5,8.4-125.8,7.1-125.8,5.7z"/>
			<path class="st1" d="M-117.9,3.4c-0.4,0-0.6,0.3-0.6,0.6s0.3,0.6,0.6,0.6c1.2,0,1.9,0.8,1.9,1.5s-0.7,1.5-1.9,1.5
				c-0.4,0-0.6,0.3-0.6,0.6s0.3,0.6,0.6,0.6c1.6,0,3.2-1.1,3.2-2.7S-116.3,3.4-117.9,3.4z"/>
			<path class="st1" d="M-127.5,4c0-0.3-0.3-0.6-0.6-0.6c-1.6,0-3.2,1.1-3.2,2.7s1.5,2.7,3.2,2.7c0.4,0,0.6-0.3,0.6-0.6
				s-0.3-0.6-0.6-0.6c-1.2,0-1.9-0.8-1.9-1.5s0.7-1.5,1.9-1.5C-127.8,4.6-127.5,4.3-127.5,4z"/>
			<path class="st0" d="M-123,10.8c-1.5,0-2.9,0.4-4,1.1c-1,0.7-1.8,1.7-1.8,2.9c0,1.2,0.7,2.2,1.8,2.9c1,0.7,2.4,1.1,4,1.1
				c1.5,0,2.9-0.4,4-1.1c1-0.7,1.8-1.7,1.8-2.9c0-1.2-0.7-2.2-1.8-2.9C-120.1,11.2-121.5,10.8-123,10.8z M-127.5,14.8
				c0-0.6,0.4-1.3,1.2-1.8c0.8-0.5,2-0.9,3.3-0.9c1.3,0,2.5,0.3,3.3,0.9c0.8,0.5,1.2,1.2,1.2,1.8s-0.4,1.3-1.2,1.8
				c-0.8,0.5-2,0.9-3.3,0.9c-1.3,0-2.5-0.3-3.3-0.9C-127.1,16.1-127.5,15.4-127.5,14.8z"/>
			<path class="st1" d="M-116.8,12.2c0.1-0.3,0.4-0.5,0.8-0.5c0.8,0.2,1.6,0.5,2.1,0.9c0.5,0.4,1,1,1,1.8c0,0.7-0.4,1.3-1,1.8
				c-0.5,0.4-1.3,0.8-2.1,0.9c-0.3,0.1-0.7-0.1-0.8-0.5c-0.1-0.3,0.1-0.7,0.5-0.7c0.7-0.1,1.2-0.4,1.6-0.7c0.4-0.3,0.5-0.6,0.5-0.8
				c0-0.2-0.1-0.5-0.5-0.8c-0.4-0.3-0.9-0.5-1.6-0.7C-116.7,12.8-116.9,12.5-116.8,12.2z"/>
			<path class="st1" d="M-130,11.7c0.3-0.1,0.7,0.1,0.8,0.5c0.1,0.3-0.1,0.7-0.5,0.7c-0.7,0.1-1.2,0.4-1.6,0.7
				c-0.4,0.3-0.5,0.6-0.5,0.8c0,0.2,0.1,0.5,0.5,0.8c0.4,0.3,0.9,0.5,1.6,0.7c0.3,0.1,0.6,0.4,0.5,0.7c-0.1,0.3-0.4,0.5-0.8,0.5
				c-0.8-0.2-1.6-0.5-2.1-0.9c-0.5-0.4-1-1-1-1.8c0-0.7,0.4-1.3,1-1.8C-131.5,12.2-130.8,11.9-130,11.7z"/>
		</g>
		<path class="st0" d="M-96.8,1.4c-0.6,0-1.1,0.2-1.7,0.4c-0.5,0.3-1.2,0.7-2,1.1l-1.7,1c-0.7,0.5-1.3,0.8-1.8,1.2
			c-0.5,0.4-0.8,0.7-1.1,1.2c-0.3,0.5-0.4,1-0.4,1.6c-0.1,0.6-0.1,1.3-0.1,2.2v1.3c0,1.5,0,2.8,0.1,3.7c0.1,1,0.4,1.8,1,2.4
			c0.6,0.6,1.4,0.9,2.3,1c0.9,0.1,2.1,0.1,3.6,0.1h3.3c1.5,0,2.7,0,3.6-0.1c1-0.1,1.7-0.4,2.3-1c0.6-0.6,0.9-1.4,1-2.4
			c0.1-0.9,0.1-2.2,0.1-3.7v-1.3c0-0.9,0-1.6-0.1-2.2c-0.1-0.6-0.2-1.1-0.4-1.6c-0.3-0.5-0.6-0.9-1.1-1.2c-0.5-0.4-1.1-0.7-1.8-1.2
			l-1.7-1c-0.8-0.5-1.4-0.9-2-1.1C-95.8,1.5-96.3,1.4-96.8,1.4z M-99.8,4c0.8-0.5,1.4-0.9,1.9-1.1c0.5-0.2,0.8-0.3,1.1-0.3
			c0.3,0,0.7,0.1,1.1,0.3c0.5,0.2,1.1,0.6,1.9,1.1l1.6,1c0.8,0.5,1.3,0.8,1.7,1.1c0.4,0.3,0.6,0.6,0.8,0.8c0.2,0.3,0.2,0.6,0.3,1.1
			c0,0.5,0,1.2,0,2.1v1.2c0,1.6,0,2.7-0.1,3.6c-0.1,0.8-0.3,1.3-0.7,1.7c-0.3,0.4-0.8,0.6-1.6,0.7c-0.8,0.1-1.9,0.1-3.5,0.1h-3.2
			c-1.5,0-2.6,0-3.5-0.1c-0.8-0.1-1.3-0.3-1.6-0.7c-0.3-0.4-0.6-0.8-0.7-1.7c-0.1-0.9-0.1-2-0.1-3.6v-1.2c0-0.9,0-1.6,0-2.1
			c0-0.5,0.1-0.8,0.3-1.1c0.2-0.3,0.4-0.5,0.8-0.8c0.4-0.3,1-0.6,1.7-1.1L-99.8,4z"/>
		<g>
			<path class="st0" d="M-64.7,2c0.3,0,0.6,0.3,0.6,0.6v2.1h2.1c0.3,0,0.6,0.3,0.6,0.6c0,0.3-0.3,0.6-0.6,0.6h-2.1v2.1
				c0,0.3-0.3,0.6-0.6,0.6c-0.3,0-0.6-0.3-0.6-0.6V5.9h-2.1c-0.3,0-0.6-0.3-0.6-0.6c0-0.3,0.3-0.6,0.6-0.6h2.1V2.6
				C-65.2,2.3-65,2-64.7,2z"/>
			<path class="st0" d="M-65.4,18.7c1.1-0.2,2-0.5,2.7-1.2c0.7-0.7,1-1.6,1.2-2.7c0.1-1.1,0.1-2.5,0.1-4.3v0c0-0.3-0.3-0.6-0.6-0.6
				s-0.6,0.3-0.6,0.6c0,1.9,0,3.2-0.1,4.2c0,0,0,0.1,0,0.1l-2.2-2c-1-0.9-2.5-1-3.6-0.2l-0.2,0.2c-0.4,0.3-0.9,0.2-1.3-0.1l-3.4-3.4
				c-0.9-0.9-2.3-0.9-3.3-0.1L-77,9.5c0-1.4,0-2.5,0.1-3.3c0.1-1,0.4-1.6,0.8-2c0.4-0.4,1-0.7,2-0.8c1-0.1,2.4-0.1,4.2-0.1
				c0.3,0,0.6-0.3,0.6-0.6S-69.4,2-69.7,2h0c-1.8,0-3.2,0-4.3,0.1c-1.1,0.2-2,0.5-2.7,1.2s-1,1.6-1.2,2.7c-0.1,1.1-0.1,2.5-0.1,4.3
				v0.1c0,1.8,0,3.2,0.1,4.3c0.2,1.1,0.5,2,1.2,2.7c0.7,0.7,1.6,1,2.7,1.2"/>
			<path class="st0" d="M-76.8,14.6c0.1,1,0.4,1.6,0.8,2c0.4,0.4,1,0.7,2,0.8c1,0.1,2.4,0.1,4.2,0.1c1.9,0,3.2,0,4.2-0.1
				c1-0.1,1.6-0.4,2-0.8c0.2-0.2,0.3-0.4,0.5-0.7c0,0-0.1,0-0.1-0.1l-2.5-2.3c-0.6-0.5-1.5-0.6-2.2-0.1l-0.2,0.2
				c-0.9,0.6-2,0.5-2.8-0.2l-3.4-3.4c-0.5-0.5-1.2-0.5-1.7-0.1l-1.2,1C-77,12.6-77,13.7-76.8,14.6z"/>
		</g>
		<path class="st0" d="M-48.4,3.8C-49.9,4.4-51,6-51,7.9c0,1.9,0.8,3.4,1.9,4.7c0.9,1.1,2.1,1.9,3.2,2.8c0.3,0.2,0.5,0.4,0.8,0.6
			c0.5,0.4,0.9,0.7,1.3,0.9c0.4,0.2,0.7,0.3,1,0.3c0.3,0,0.6-0.1,1-0.3c0.4-0.2,0.8-0.6,1.3-0.9c0.3-0.2,0.5-0.4,0.8-0.6
			c1.1-0.9,2.3-1.7,3.2-2.8c1.1-1.3,1.9-2.8,1.9-4.7c0-1.9-1.1-3.5-2.5-4.2c-1.4-0.7-3.3-0.5-5.2,1.4c-0.1,0.1-0.3,0.2-0.5,0.2
			c-0.2,0-0.4-0.1-0.5-0.2C-45.1,3.3-47,3.1-48.4,3.8z M-42.8,3.8c-2-1.8-4.3-2.1-6.2-1.2c-2,0.9-3.3,3-3.3,5.4c0,2.4,1,4.2,2.3,5.6
			c1,1.2,2.3,2.1,3.4,3c0.3,0.2,0.5,0.4,0.7,0.6c0.5,0.4,0.9,0.7,1.4,1c0.5,0.3,1.1,0.5,1.7,0.5c0.6,0,1.2-0.2,1.7-0.5
			c0.5-0.3,1-0.7,1.4-1c0.2-0.2,0.5-0.4,0.7-0.6c1.1-0.9,2.4-1.8,3.4-3c1.3-1.5,2.3-3.3,2.3-5.6c0-2.4-1.4-4.5-3.3-5.4
			C-38.4,1.7-40.7,2-42.8,3.8z"/>
		<path class="st0" d="M-16.1,3.1c-3.7,0-6.8,3-6.8,6.8c0,3.7,3,6.8,6.8,6.8c3.7,0,6.8-3,6.8-6.8C-9.3,6.1-12.4,3.1-16.1,3.1z
			 M-24,9.9c0-4.4,3.5-7.9,7.9-7.9c4.4,0,7.9,3.5,7.9,7.9c0,2-0.7,3.8-1.9,5.2l2.5,2.5c0.2,0.2,0.2,0.6,0,0.8s-0.6,0.2-0.8,0
			l-2.5-2.5c-1.4,1.2-3.2,1.9-5.2,1.9C-20.5,17.8-24,14.2-24,9.9z"/>
		<g>
			<path class="st0" d="M12,2.2c-2,0-3.6,1.6-3.6,3.6S10,9.5,12,9.5c2,0,3.6-1.6,3.6-3.6S14,2.2,12,2.2z M9.5,5.9
				c0-1.4,1.1-2.5,2.5-2.5s2.5,1.1,2.5,2.5S13.4,8.4,12,8.4S9.5,7.2,9.5,5.9z"/>
			<path class="st0" d="M12,10.7c-1.8,0-3.4,0.4-4.6,1.1c-1.2,0.7-2.1,1.7-2.1,2.9l0,0.1c0,0.9,0,2,1,2.8c0.5,0.4,1.2,0.7,2.1,0.9
				c0.9,0.2,2.1,0.3,3.7,0.3c1.6,0,2.8-0.1,3.7-0.3c0.9-0.2,1.6-0.5,2.1-0.9c1-0.8,1-1.9,1-2.8l0-0.1c0-1.3-0.9-2.3-2.1-2.9
				C15.4,11.1,13.8,10.7,12,10.7z M6.4,14.7c0-0.7,0.5-1.4,1.5-1.9c1-0.6,2.4-0.9,4.1-0.9c1.6,0,3.1,0.4,4.1,0.9
				c1,0.6,1.5,1.3,1.5,1.9c0,1,0,1.6-0.6,2c-0.3,0.2-0.8,0.5-1.6,0.6c-0.8,0.2-1.9,0.3-3.4,0.3s-2.6-0.1-3.4-0.3
				c-0.8-0.2-1.3-0.4-1.6-0.6C6.5,16.3,6.4,15.7,6.4,14.7z"/>
		</g>
	</g>
</g>
<g id="Layer_2">
	<text transform="matrix(1 0 0 1 -101.0115 22.4844)" class="st1 st2 st3">Home</text>
	<text transform="matrix(1 0 0 1 -78.1349 22.4842)" class="st1 st2 st3">Create Post</text>
	<text transform="matrix(1 0 0 1 -48.1711 22.264)" class="st1 st2 st3">Activity</text>
	<text transform="matrix(1 0 0 1 -20.7089 22.3466)" class="st1 st2 st3">Search</text>
	<text transform="matrix(1 0 0 1 7.7451 22.264)" class="st1 st2 st3">Profile</text>
</g>
</svg>
