<?xml version="1.0" encoding="UTF-8"?>
<svg xmlns="http://www.w3.org/2000/svg" viewBox="0 0 24 24">
  <defs>
    <style>
      .cls-1 {
        font-family: Arial-BoldMT, Arial;
        font-size: 3px;
        font-weight: 700;
      }

      .cls-1, .cls-2 {
        fill: #efefef;
      }

      .cls-2 {
        fill-rule: evenodd;
        stroke-width: 0px;
      }
    </style>
  </defs>
  <g id="Layer_1" data-name="Layer 1">
    <g>
      <path class="cls-2" d="m12,2.2c-2.02,0-3.65,1.63-3.65,3.65s1.63,3.65,3.65,3.65,3.65-1.63,3.65-3.65-1.63-3.65-3.65-3.65Zm-2.5,3.65c0-1.38,1.12-2.5,2.5-2.5s2.5,1.12,2.5,2.5-1.12,2.5-2.5,2.5-2.5-1.12-2.5-2.5Z"/>
      <path class="cls-2" d="m12,10.66c-1.78,0-3.42.4-4.63,1.09-1.2.67-2.09,1.69-2.09,2.95v.08c0,.89,0,2.01.98,2.81.48.39,1.16.67,2.07.86.92.19,2.11.28,3.67.28s2.75-.1,3.67-.28c.91-.19,1.59-.47,2.07-.86.98-.8.98-1.92.98-2.81v-.08c0-1.26-.9-2.27-2.09-2.95-1.21-.68-2.85-1.09-4.63-1.09Zm-5.57,4.03c0-.65.48-1.36,1.51-1.94,1.01-.57,2.45-.94,4.06-.94s3.05.37,4.06.94c1.03.58,1.51,1.29,1.51,1.94,0,1-.03,1.57-.56,2-.28.23-.76.46-1.58.62-.81.16-1.92.26-3.44.26s-2.63-.1-3.44-.26c-.81-.16-1.29-.39-1.58-.62-.52-.43-.56-.99-.56-2Z"/>
    </g>
  </g>
  <g id="Layer_2" data-name="Layer 2">
    <text class="cls-1" transform="translate(7.75 22.26)"><tspan x="0" y="0">Profile</tspan></text>
  </g>
</svg>